<?xml version="1.0" encoding="UTF-8" standalone="no"?>
<!-- Created with Inkscape (http://www.inkscape.org/) -->

<svg
   xmlns:dc="http://purl.org/dc/elements/1.1/"
   xmlns:cc="http://creativecommons.org/ns#"
   xmlns:rdf="http://www.w3.org/1999/02/22-rdf-syntax-ns#"
   xmlns:svg="http://www.w3.org/2000/svg"
   xmlns="http://www.w3.org/2000/svg"
   xmlns:xlink="http://www.w3.org/1999/xlink"
   xmlns:sodipodi="http://sodipodi.sourceforge.net/DTD/sodipodi-0.dtd"
   xmlns:inkscape="http://www.inkscape.org/namespaces/inkscape"
   id="svg11525"
   sodipodi:docname="import.svg"
   viewBox="0 0 287.10238 287.51894"
   version="1.1"
   inkscape:version="0.92.5 (2060ec1f9f, 2020-04-08)"
   width="287.10239"
   height="287.51892">
  <defs
     id="defs11527">
    <linearGradient
       id="linearGradient6035-4">
      <stop
         id="stop6037-2"
         style="stop-color:#ffffff"
         offset="0" />
      <stop
         id="stop6039-9"
         style="stop-color:#ffffff;stop-opacity:0"
         offset="1" />
    </linearGradient>
    <linearGradient
       inkscape:collect="always"
       xlink:href="#linearGradient6549"
       id="linearGradient4027"
       gradientUnits="userSpaceOnUse"
       gradientTransform="matrix(0.14299712,0,0,0.16874446,-21.364557,-1.5193858)"
       x1="15.125"
       y1="19.010838"
       x2="15.125"
       y2="12.332324" />
    <linearGradient
       id="linearGradient6549">
      <stop
         id="stop6551"
         offset="0"
         style="stop-color:#41c20c;stop-opacity:0;" />
      <stop
         style="stop-color:#3dbb09;stop-opacity:1;"
         offset="0.42105263"
         id="stop6557" />
      <stop
         id="stop6553"
         offset="1"
         style="stop-color:#2c8507;stop-opacity:1" />
    </linearGradient>
    <linearGradient
       inkscape:collect="always"
       xlink:href="#linearGradient6559"
       id="linearGradient4029"
       gradientUnits="userSpaceOnUse"
       gradientTransform="matrix(0.13784653,0,0,0.14194095,-21.220026,-1.2750356)"
       x1="21.743534"
       y1="17.239695"
       x2="21.743534"
       y2="20.607468" />
    <linearGradient
       id="linearGradient6559"
       inkscape:collect="always">
      <stop
         id="stop6561"
         offset="0"
         style="stop-color:#4ea01c;stop-opacity:1;" />
      <stop
         id="stop6563"
         offset="1"
         style="stop-color:#4ea01c;stop-opacity:0;" />
    </linearGradient>
    <linearGradient
       inkscape:collect="always"
       xlink:href="#linearGradient2201"
       id="linearGradient4021"
       gradientUnits="userSpaceOnUse"
       gradientTransform="matrix(0,-0.091607,-0.08217238,0,-14.732815,-3.6015687)"
       x1="-93.517403"
       y1="19.253912"
       x2="-47.049515"
       y2="41.683594" />
    <linearGradient
       id="linearGradient2201">
      <stop
         style="stop-color:#479214;stop-opacity:1"
         offset="0.0000000"
         id="stop2203" />
      <stop
         style="stop-color:#3ee407;stop-opacity:1"
         offset="1.0000000"
         id="stop2205" />
    </linearGradient>
    <linearGradient
       inkscape:collect="always"
       xlink:href="#linearGradient5714"
       id="linearGradient4018"
       gradientUnits="userSpaceOnUse"
       gradientTransform="matrix(0,0.14727737,-0.12631839,0,-14.759091,-1.3664761)"
       x1="3.4491618"
       y1="27.5676"
       x2="36.619328"
       y2="17.625456" />
    <linearGradient
       id="linearGradient5714"
       inkscape:collect="always">
      <stop
         id="stop5716"
         offset="0"
         style="stop-color:white;stop-opacity:0.91416311" />
      <stop
         id="stop5718"
         offset="1"
         style="stop-color:white;stop-opacity:0.40772533" />
    </linearGradient>
  </defs>
  <sodipodi:namedview
     id="base"
     bordercolor="#666666"
     inkscape:pageshadow="2"
     inkscape:window-y="259"
     fit-margin-left="0"
     pagecolor="#ffffff"
     fit-margin-top="0"
     inkscape:window-maximized="0"
     inkscape:zoom="1.4"
     inkscape:window-x="2349"
     inkscape:window-height="514"
     showgrid="false"
     borderopacity="1.0"
     inkscape:current-layer="layer1"
     inkscape:cx="94.687265"
     inkscape:cy="182.74342"
     fit-margin-right="0"
     fit-margin-bottom="0"
     inkscape:window-width="716"
     inkscape:pageopacity="0.0"
     inkscape:document-units="px" />
  <g
     id="layer1"
     inkscape:label="Layer 1"
     inkscape:groupmode="layer"
     transform="translate(-331.42836,-429.01881)">
    <g
       transform="matrix(1.1196,0,0,1.1196,-122.82057,267.39056)"
       inkscape:label="Capa 1"
       id="layer1-3-5-2">
      <g
         class="Graphic"
         transform="matrix(0.0423,0,0,0.0423,319.39,59.128)"
         id="g10-5-2">
        <g
           id="g12-4-2">
          <g
             style="fill:#c7c7c7"
             id="g14-64-0">
            <path
               d="m 5903,2361 c 50,82 34,3995 -31,4149 -51,122 -1703,1495 -1789,1531 -1117,-7 -1870,-414 -1995,-629 -48,-270 -7,-4433 38,-4520 40,-76 2153,-833 2227,-851 67,-15 1493,229 1550,320 z"
               inkscape:connector-curvature="0"
               id="path16-1-5" />
          </g>
          <g
             style="fill:#000000"
             id="g18-6-5">
            <path
               d="m 5881,2374 2,-1 -2,2 c 0,-1 -1,-1 -1,-1 v -2 l 7,-3 -2,2 -5,1 5,-1 -2,2 z m 2,-1 2,-2 2,-2 5,-2 -5,4 5,-4 h 1 l -6,3 v 1 -1 z m 10,-6 h -1 1 -1 l 11,-6 -10,5 z m 11,-4 -11,4 v -1 z m 20,-15 c -2,-3 -4,-6 -7,-9 -2,-3 -5,-5 -8,-7 -5,-4 -12,-8 -20,-12 -7,-4 -15,-7 -24,-11 -9,-4 -19,-7 -30,-11 -21,-8 -47,-16 -75,-24 -29,-8 -61,-16 -95,-25 -136,-34 -313,-72 -494,-106 -181,-35 -364,-66 -511,-90 -73,-11 -138,-21 -189,-27 -25,-3 -47,-6 -65,-8 -9,-1 -17,-1 -24,-2 -4,0 -7,0 -10,-1 h -9 c -3,0 -5,0 -7,1 h -4 c -2,0 -3,0 -4,1 -2,0 -4,1 -7,2 -2,0 -5,1 -8,2 -3,1 -7,2 -11,3 -4,2 -8,3 -13,5 -10,3 -22,7 -35,12 -13,4 -28,9 -44,15 -33,11 -71,25 -115,40 -43,15 -91,32 -144,51 -209,75 -481,173 -753,274 -271,101 -542,203 -747,285 -51,21 -98,40 -140,57 -43,18 -80,34 -111,48 -16,7 -30,14 -42,20 -13,6 -24,12 -33,17 -5,2 -9,5 -13,7 -4,3 -8,5 -10,7 -4,3 -7,5 -9,7 -5,4 -7,8 -9,11 -1,2 -2,5 -4,9 0,3 -1,6 -1,9 -1,3 -1,7 -2,11 -1,4 -1,8 -2,13 0,9 -1,20 -3,32 0,13 -1,27 -2,42 -2,31 -4,69 -6,111 -2,43 -4,91 -5,144 -7,213 -14,504 -19,835 -11,662 -19,1482 -19,2144 0,308 2,583 5,791 1,52 2,100 3,143 1,43 3,82 4,115 1,34 3,62 4,85 1,12 2,22 3,30 1,5 1,9 1,13 1,3 2,7 2,10 l 1,4 2,4 c 9,15 20,30 33,46 14,16 30,32 48,49 35,32 80,66 135,101 107,70 249,142 423,207 173,65 377,124 608,167 231,43 489,70 769,72 h 6 l 5,-2 8,-4 c 2,-2 5,-3 8,-6 3,-2 6,-4 10,-6 l 12,-9 c 9,-6 19,-13 30,-22 11,-8 23,-17 37,-28 27,-20 58,-45 93,-73 35,-28 74,-59 116,-93 169,-136 385,-315 600,-497 215,-181 430,-366 593,-512 41,-37 79,-71 113,-103 34,-31 64,-59 89,-84 13,-13 24,-24 34,-35 11,-11 20,-20 28,-29 8,-9 14,-17 19,-23 3,-4 5,-8 7,-10 2,-4 4,-8 6,-11 0,-2 1,-5 2,-8 1,-3 2,-5 3,-9 1,-6 2,-13 3,-22 2,-8 3,-17 4,-28 1,-11 2,-22 3,-35 2,-25 4,-55 7,-89 1,-34 3,-72 5,-113 8,-166 14,-391 19,-648 10,-516 16,-1164 16,-1743 0,-389 -3,-747 -8,-1012 -1,-66 -2,-127 -4,-181 -1,-53 -3,-100 -5,-139 -1,-20 -2,-38 -3,-53 -1,-16 -2,-30 -3,-41 -1,-6 -1,-11 -2,-16 -1,-5 -1,-10 -2,-13 -1,-4 -1,-8 -2,-11 -1,-2 -1,-4 -2,-5 -1,-3 -2,-5 -3,-6 z m -37,21 12,-12 z m -6,9 c 1,3 1,7 2,11 0,4 1,9 1,15 1,11 3,24 4,39 0,15 1,33 2,52 2,39 4,86 6,139 1,53 2,114 4,180 5,264 7,622 7,1011 0,578 -5,1227 -15,1742 -6,257 -12,481 -19,646 -2,42 -4,79 -6,113 -2,33 -4,63 -6,88 -1,12 -2,24 -4,34 0,10 -2,18 -3,26 -1,7 -2,14 -3,18 0,3 -1,4 -1,6 0,1 -1,2 -1,2 0,1 -1,2 -2,4 -1,1 -3,4 -4,6 -5,6 -10,13 -17,21 -7,7 -16,17 -26,27 l -34,34 c -25,24 -54,52 -88,83 -33,31 -71,66 -112,102 -163,146 -377,330 -592,512 -215,181 -431,360 -598,495 -42,34 -81,65 -116,93 -35,28 -66,52 -93,73 -13,10 -26,20 -37,28 -10,8 -20,15 -28,21 -4,3 -8,6 -12,8 -3,2 -6,4 -8,6 -2,1 -4,2 -5,3 -276,-2 -528,-29 -755,-71 -228,-42 -429,-100 -600,-164 -169,-64 -308,-134 -413,-202 -51,-33 -94,-66 -128,-97 -17,-15 -31,-30 -43,-44 -10,-12 -19,-23 -26,-34 v -4 c -1,-3 -1,-7 -1,-11 -1,-8 -2,-18 -3,-28 -2,-23 -3,-51 -5,-84 -1,-33 -2,-71 -3,-115 -1,-42 -2,-90 -3,-142 -3,-208 -5,-482 -5,-790 0,-662 7,-1481 18,-2143 6,-330 12,-622 19,-834 2,-53 4,-101 6,-144 2,-42 3,-79 5,-109 1,-16 2,-30 3,-42 1,-12 2,-22 3,-31 0,-4 1,-8 1,-11 1,-4 1,-6 2,-9 v -2 c 0,-1 1,-1 2,-2 2,-1 4,-3 7,-5 4,-1 7,-4 11,-6 9,-5 19,-10 31,-16 12,-6 26,-12 41,-19 31,-14 67,-29 109,-47 42,-17 89,-37 140,-57 205,-82 475,-184 746,-284 271,-101 543,-200 752,-274 52,-19 101,-36 144,-51 43,-16 82,-29 114,-40 17,-6 31,-11 44,-16 13,-4 25,-8 35,-11 4,-2 9,-3 13,-4 4,-2 7,-3 10,-4 3,-1 5,-1 8,-2 l 3,-1 -2,-8 1,8 h 1 4 7 c 2,0 5,0 8,1 7,0 14,1 23,2 17,1 39,4 64,7 50,6 114,16 187,27 147,23 329,55 509,89 180,35 357,72 492,106 34,9 65,17 92,25 28,8 53,15 73,23 10,3 20,7 28,10 7,3 15,6 20,9 5,3 10,5 13,8 0,0 1,0 1,1 0,1 1,3 1,4 z M 4075,8017 c 1,0 1,-1 2,-1 h 6 v 14 l -8,-13 8,13 v 11 l -10,-23 c 0,0 1,-1 2,-1 z M 2110,7400 c 1,1 1,3 2,4 1,1 1,3 1,4 l -25,4 21,-11 1,-1 -1,1 1,-1 h 2 z m 39,-4498 v 3 c -1,0 -1,1 -2,1 l -5,-6 -17,-4 17,4 -2,-1 4,2 z m -7,-2 2,1 z m -16,-8 14,7 z m 14,7 -10,-11 z m 2217,-841 -2,-17 z m -4,-17 4,17 v 1 z"
               inkscape:connector-curvature="0"
               id="path20-8-2" />
          </g>
          <g
             style="fill:#ffffff;fill-opacity:0.54118;stroke:#ffffff;stroke-opacity:0.54118"
             id="g22-8-9">
            <path
               d="m 5822,2442 -52,22 -52,23 -52,23 -53,25 -53,25 -53,26 -53,26 -54,27 -54,27 -54,28 -55,28 -54,29 -55,29 -55,29 -111,60 -112,60 -112,60 -113,61 -114,60 -114,60 -114,59 -57,29 -57,29 -58,28 -57,28 -27,-6 -28,-7 -56,-13 -58,-14 -59,-13 -60,-14 -61,-14 -61,-14 -63,-14 -62,-14 -63,-15 -127,-28 -127,-28 -64,-14 -63,-14 -62,-13 -62,-13 -61,-13 -60,-13 -60,-13 -58,-12 -57,-12 -28,-5 -28,-6 -27,-5 -27,-6 -27,-5 -26,-5 -26,-5 -25,-6 -25,-4 -24,-5 -24,-5 -24,-4 -23,-4 -22,-5 -22,-4 -21,-3 -21,-4 -20,-4 52,16 52,16 53,16 54,15 55,16 55,15 57,16 56,15 57,16 58,15 116,31 117,30 118,31 118,31 117,30 116,31 58,15 57,16 57,15 56,16 55,15 55,16 54,15 53,16 52,16 52,16 1,60 2,61 1,61 1,63 1,64 2,64 1,65 1,66 1,67 1,67 1,68 v 69 l 1,69 1,70 1,70 v 71 l 1,71 v 72 l 1,72 1,73 1,146 1,147 v 149 l 1,149 2,299 1,300 1,149 1,148 1,147 1,146 1,73 v 72 l 1,72 1,71 v 71 l 1,71 1,69 1,70 v 68 l 1,68 1,67 1,67 1,66 1,65 1,65 2,63 1,63 1,62 2,61 1,60 1,-61 1,-61 v -63 l 1,-63 1,-64 1,-65 1,-66 1,-67 1,-67 1,-68 1,-69 2,-69 1,-70 1,-71 1,-71 1,-72 1,-72 2,-73 1,-73 1,-73 3,-148 3,-149 2,-151 3,-151 6,-303 5,-303 3,-151 3,-150 2,-149 3,-149 1,-73 2,-73 1,-73 1,-72 1,-71 1,-72 1,-70 2,-70 1,-70 1,-68 1,-68 1,-68 1,-66 1,-66 1,-65 1,-64 1,-64 v -62 l 1,-62 1,-60 110,-59 109,-59 109,-57 109,-58 108,-57 107,-58 107,-57 107,-58 105,-58 105,-58 104,-60 103,-60 51,-30 50,-31 51,-31 50,-31 50,-31 50,-32 49,-32 z"
               inkscape:connector-curvature="0"
               id="path24-1-0" />
          </g>
          <g
             style="fill:none"
             id="g28-1-8">
            <path
               d="m 5822,2442 c -549,232 -1156,606 -1768,901 -580,-138 -1417,-322 -1839,-396 543,169 1257,327 1800,496 32,1271 16,3196 48,4467 16,-1282 59,-3238 75,-4519 586,-317 1161,-601 1684,-949 z"
               inkscape:connector-curvature="0"
               id="path30-7-3" />
          </g>
          <g
             style="fill:#000000;fill-opacity:0.16078001;stroke:#ffffff;stroke-opacity:0.16078001"
             id="g32-7-8">
            <path
               d="m 2420,6628 10,14 10,13 11,13 12,13 12,12 12,12 14,12 13,12 14,12 15,11 15,11 16,11 15,11 17,10 16,10 17,11 18,9 18,10 18,9 18,8 19,9 19,8 19,8 19,8 40,15 40,14 41,12 41,11 42,10 41,9 42,8 41,6 41,6 41,3 21,2 20,1 19,1 h 20 20 19 l 19,-1 19,-1 18,-1 19,-1 17,-2 18,-3 17,-2 17,-3 17,-4 16,-4 15,-4 15,-4 15,-5 15,-5 -2,-1 h -1 l -5,-2 -6,-1 -7,-2 -8,-2 -10,-3 -10,-3 -12,-3 -13,-4 -14,-3 -15,-4 -16,-5 -16,-4 -18,-5 -18,-5 -19,-5 -20,-6 -20,-5 -21,-6 -22,-6 -22,-6 -22,-6 -23,-7 -24,-6 -48,-13 -49,-14 -50,-14 -50,-13 -50,-15 -50,-13 -49,-14 -49,-13 -23,-7 -24,-6 -23,-7 -22,-6 -22,-6 -21,-6 -21,-6 -20,-5 -19,-6 -19,-5 -18,-5 -17,-5 -16,-4 -15,-5 -15,-4 -13,-4 -12,-3 -12,-3 -10,-3 -9,-3 -7,-2 -7,-2 -5,-2 h -2 z"
               inkscape:connector-curvature="0"
               id="path34-1-0" />
          </g>
          <g
             style="fill:none"
             id="g38-5-0">
            <path
               d="m 2420,6628 c 201,289 833,431 1133,315 -53,-14 -1066,-293 -1133,-315 z"
               inkscape:connector-curvature="0"
               id="path40-7-9" />
          </g>
          <g
             style="fill:#ffffff;fill-opacity:0.38824002;stroke:#ffffff;stroke-opacity:0.38824002"
             id="g42-6-1">
            <path
               d="m 3454,6093 -936,-361 -9,4 -8,4 -8,4 -6,5 -6,6 -6,6 -5,7 -5,6 -4,7 -4,7 -3,7 -3,8 -3,8 -2,7 -3,15 -2,15 -2,14 v 6 7 5 6 5 4 4 l 1,4 v 2 2 1 1 l 146,51 1,1 1,1 1,1 1,2 2,2 1,3 3,3 2,3 3,4 3,4 3,4 4,5 4,4 4,6 5,4 10,12 10,11 13,12 13,12 14,13 15,12 17,13 17,12 19,12 19,11 21,11 22,10 11,4 11,5 12,4 12,4 13,3 12,3 13,3 13,3 13,2 13,1 14,2 14,1 h 14 15 15 l 15,-1 15,-2 15,-2 16,-2 16,-3 16,-4 16,-4 17,-5 17,-6 h 1 l 2,1 h 3 l 6,1 6,1 7,1 8,1 9,1 10,1 11,1 12,1 12,1 h 12 l 13,1 h 26 l 14,-1 13,-1 14,-1 13,-2 13,-2 12,-3 12,-3 12,-3 10,-5 11,-5 9,-6 8,-6 8,-8 3,-4 3,-4 3,-4 2,-4 2,-5 z"
               inkscape:connector-curvature="0"
               id="path44-7-9" />
          </g>
          <g
             style="fill:none"
             id="g48-57-2">
            <path
               d="m 3454,6093 -936,-361 c -97,34 -78,177 -78,177 l 146,51 c 0,0 204,319 566,194 0,0 269,48 302,-61 z"
               inkscape:connector-curvature="0"
               id="path50-0-5" />
          </g>
          <g
             style="fill:#606060"
             id="g52-5-4">
            <path
               d="m 3446,5971 c -311,-81 -622,-161 -933,-242 -12,44 -13,107 6,140 47,23 142,41 189,64 136,131 255,142 472,124 84,17 168,31 251,48 26,-51 33,-72 15,-134 z"
               inkscape:connector-curvature="0"
               id="path54-7-4" />
          </g>
          <g
             style="fill:none"
             id="g56-7-9">
            <path
               d="m 3446,5971 c -311,-81 -622,-161 -933,-242 -12,44 -13,107 6,140 47,23 142,41 189,64 136,131 255,142 472,124 84,17 168,31 251,48 26,-51 33,-72 15,-134 z"
               inkscape:connector-curvature="0"
               id="path58-8-9" />
          </g>
          <g
             style="fill:#ffffff;fill-opacity:0.4;stroke:#ffffff;stroke-opacity:0.4"
             id="g60-5-3">
            <path
               d="m 5856,2414 -1813,1017 7,4549 1775,-1494 z"
               inkscape:connector-curvature="0"
               id="path62-2-6" />
          </g>
          <g
             style="fill:none"
             id="g66-2-5">
            <path
               d="m 5856,2414 -1813,1017 7,4549 1775,-1494 z"
               inkscape:connector-curvature="0"
               id="path68-9-0" />
          </g>
          <g
             style="fill:#000000;fill-opacity:0.16078001;stroke:#ffffff;stroke-opacity:0.16078001"
             id="g70-9-2">
            <path
               d="m 2525,6916 10,13 11,12 10,13 11,11 11,12 11,11 12,11 12,10 12,10 12,10 13,10 12,9 13,9 13,8 27,17 28,15 28,14 28,13 29,11 29,11 30,9 30,8 29,8 30,6 30,5 30,4 30,3 30,2 29,2 h 29 l 29,-1 27,-2 28,-2 27,-3 26,-5 25,-5 24,-6 24,-6 22,-8 -2,-1 h -4 l -4,-2 -5,-1 -6,-2 -8,-2 -8,-2 -9,-2 -10,-3 -10,-3 -11,-3 -12,-3 -13,-4 -13,-3 -14,-4 -15,-4 -15,-4 -15,-5 -16,-4 -16,-5 -17,-4 -18,-5 -35,-10 -36,-10 -38,-10 -38,-10 -38,-11 -76,-21 -37,-10 -37,-11 -36,-10 -17,-4 -17,-5 -17,-5 -16,-4 -16,-5 -15,-4 -15,-4 -14,-4 -14,-4 -13,-4 -12,-3 -11,-3 -12,-3 -10,-3 -9,-3 -8,-2 -8,-3 -7,-1 -6,-2 -5,-2 -4,-1 z"
               inkscape:connector-curvature="0"
               id="path72-9-9" />
          </g>
          <g
             style="fill:none"
             id="g76-2-3">
            <path
               d="m 2525,6916 c 209,276 627,323 861,239 -39,-10 -810,-222 -861,-239 z"
               inkscape:connector-curvature="0"
               id="path78-7-5" />
          </g>
          <g
             style="fill:#000000;fill-opacity:0.16078001;stroke:#ffffff;stroke-opacity:0.16078001"
             id="g80-6-1">
            <path
               d="m 2680,7199 12,15 12,14 13,14 14,12 14,13 14,11 15,11 16,11 15,9 17,9 16,9 17,7 18,7 17,7 18,5 18,5 18,5 19,3 18,4 19,2 18,2 19,1 h 19 19 l 18,-1 19,-2 18,-2 19,-3 18,-4 18,-4 18,-5 17,-6 h -1 l -2,-1 h -3 l -4,-1 -3,-1 -5,-2 -5,-1 -6,-2 -6,-1 -6,-2 -7,-2 -8,-2 -8,-2 -8,-3 -9,-2 -9,-2 -19,-6 -20,-5 -22,-6 -22,-6 -23,-6 -23,-7 -48,-13 -48,-13 -23,-7 -23,-6 -23,-6 -21,-6 -21,-6 -19,-6 -9,-2 -9,-3 -9,-2 -8,-2 -8,-2 -7,-2 -7,-2 -6,-2 -6,-2 -5,-2 -5,-1 -5,-1 -3,-1 -3,-1 -3,-1 z"
               inkscape:connector-curvature="0"
               id="path82-0-7" />
          </g>
          <g
             style="fill:none"
             id="g86-0-3">
            <path
               d="m 2680,7199 c 121,163 355,213 540,149 -25,-6 -507,-139 -540,-149 z"
               inkscape:connector-curvature="0"
               id="path88-3-1" />
          </g>
          <g
             style="fill:#fcfcfc;fill-opacity:0.43922005;stroke:#ffffff;stroke-opacity:0.43922005"
             id="g90-5-4">
            <path
               d="m 2356,3259 -92,13 -17,2173 1425,399 35,-116 -1369,-365 z"
               inkscape:connector-curvature="0"
               id="path92-9-6" />
          </g>
          <g
             style="fill:none"
             id="g96-7-4">
            <path
               d="m 2356,3259 -92,13 -17,2173 1425,399 35,-116 -1369,-365 z"
               inkscape:connector-curvature="0"
               id="path98-7-2" />
          </g>
          <g
             style="fill:#000000;fill-opacity:0.23137004;stroke:#ffffff;stroke-opacity:0.23137004"
             id="g100-1-2">
            <path
               d="m 3700,4065 -2,61 -1340,-386 z"
               inkscape:connector-curvature="0"
               id="path102-64-6" />
          </g>
          <g
             style="fill:#000000;fill-opacity:0.23137004;stroke:#ffffff;stroke-opacity:0.23137004"
             id="g106-1-1">
            <path
               d="m 3720,4507 -3,61 -1339,-386 z"
               inkscape:connector-curvature="0"
               id="path108-3-2" />
          </g>
          <g
             style="fill:#000000;fill-opacity:0.23137004;stroke:#ffffff;stroke-opacity:0.23137004"
             id="g112-9-8">
            <path
               d="m 3700,4916 -2,61 -1340,-386 z"
               inkscape:connector-curvature="0"
               id="path114-09-9" />
          </g>
          <g
             style="fill:#000000;fill-opacity:0.23137004;stroke:#ffffff;stroke-opacity:0.23137004"
             id="g118-8-8">
            <path
               d="m 3700,5318 -2,61 -1340,-387 z"
               inkscape:connector-curvature="0"
               id="path120-3-8" />
          </g>
          <g
             style="fill:#9e9e9e"
             id="g124-5-6">
            <path
               d="m 2361,3309 1332,333 -11,2197 h 11 11 l 11,-2205 v -9 l -8,-2 -1341,-335 -2,11 z m 1340,335 -8,-2 v -8 h 11 z"
               inkscape:connector-curvature="0"
               id="path126-3-8" />
          </g>
        </g>
      </g>
    </g>
    <g
       transform="translate(364.51407,544.66631)"
       id="g955"
       style="fill:#aa87de;stroke:#7137c8">
      <path
         id="repo1_230_"
         class="st7"
         d="m 125.2,118.2 c 0,-12.4 28.2,-22.4 63,-22.4 34.8,0 63,10 63,22.4 m -126,0 v 27.9 c 0,3 1.7,5.9 4.7,8.5 9.4,8.2 32,13.9 58.3,13.9 26.4,0 48.9,-5.8 58.3,-13.9 3,-2.6 4.7,-5.5 4.7,-8.5 v -27.9"
         inkscape:connector-curvature="0"
         style="fill:#aa87de;stroke:#7137c8;stroke-width:4;stroke-miterlimit:10" />
      <path
         class="st34"
         d="m 251.2,118.2 c 0,12.4 -28.2,22.4 -63,22.4 -34.8,0 -63,-10 -63,-22.4 0,-12.4 28.2,-22.4 63,-22.4 34.8,0 63,10 63,22.4 z"
         id="path5"
         inkscape:connector-curvature="0"
         style="fill:#aa87de;stroke:#7137c8;stroke-width:4;stroke-miterlimit:10" />
      <path
         id="repo1_229_"
         class="st7"
         d="m 125.2,90.3 c 0,-12.4 28.2,-22.4 63,-22.4 34.8,0 63,10 63,22.4 m -126,0 v 27.9 c 0,3 1.7,5.9 4.7,8.5 9.4,8.2 32,13.9 58.3,13.9 26.4,0 48.9,-5.8 58.3,-13.9 3,-2.6 4.7,-5.5 4.7,-8.5 V 90.3"
         inkscape:connector-curvature="0"
         style="fill:#aa87de;stroke:#7137c8;stroke-width:4;stroke-miterlimit:10" />
      <path
         class="st34"
         d="m 251.2,90.3 c 0,12.4 -28.2,22.4 -63,22.4 -34.8,0 -63,-10 -63,-22.4 0,-12.4 28.2,-22.4 63,-22.4 34.8,0 63,10 63,22.4 z"
         id="path8"
         inkscape:connector-curvature="0"
         style="fill:#aa87de;stroke:#7137c8;stroke-width:4;stroke-miterlimit:10" />
      <path
         id="repo1_228_"
         class="st7"
         d="m 125.2,62.4 c 0,-12.4 28.2,-22.4 63,-22.4 34.8,0 63,10 63,22.4 m -126,0 v 27.9 c 0,3 1.7,5.9 4.7,8.5 9.4,8.2 32,13.9 58.3,13.9 26.4,0 48.9,-5.8 58.3,-13.9 3,-2.6 4.7,-5.5 4.7,-8.5 V 62.4"
         inkscape:connector-curvature="0"
         style="fill:#aa87de;stroke:#7137c8;stroke-width:4;stroke-miterlimit:10" />
      <path
         class="st34"
         d="m 251.2,62.4 c 0,12.4 -28.2,22.4 -63,22.4 -34.8,0 -63,-10 -63,-22.4 0,-12.4 28.2,-22.4 63,-22.4 34.8,0 63,10 63,22.4 z"
         id="path11"
         inkscape:connector-curvature="0"
         style="fill:#aa87de;stroke:#7137c8;stroke-width:4;stroke-miterlimit:10" />
      <path
         id="repo1_227_"
         class="st7"
         d="m 125.2,34.5 c 0,-12.4 28.2,-22.4 63,-22.4 34.8,0 63,10 63,22.4 m -126,0 v 27.9 c 0,3 1.7,5.9 4.7,8.5 9.4,8.2 32,13.9 58.3,13.9 26.4,0 48.9,-5.8 58.3,-13.9 3,-2.6 4.7,-5.5 4.7,-8.5 V 34.5"
         inkscape:connector-curvature="0"
         style="fill:#aa87de;stroke:#7137c8;stroke-width:4;stroke-miterlimit:10" />
      <path
         class="st5"
         d="m 251.2,34.5 c 0,12.4 -28.2,22.4 -63,22.4 -34.8,0 -63,-10 -63,-22.4 0,-12.4 28.2,-22.4 63,-22.4 34.8,0 63,10 63,22.4 z"
         id="path14"
         inkscape:connector-curvature="0"
         style="fill:#aa87de;stroke:#7137c8;stroke-width:4;stroke-miterlimit:10" />
    </g>
    <g
       transform="matrix(5.6447919,0,0,5.1392145,445.87511,430.4209)"
       id="g880"
       style="stroke-width:0.18566398">
      <path
         inkscape:connector-curvature="0"
         sodipodi:nodetypes="cccc"
         id="path5674"
         d="M 0.50758884,11.500004 H 10.649919 c 0,-6.7988375 3.891499,-9.0267961 5.850082,-7.8631883 C 12.208031,0.32139861 0.15467287,-0.51419316 0.50758884,11.500004 Z"
         style="fill:url(#linearGradient4027);fill-opacity:1;fill-rule:evenodd;stroke:url(#linearGradient4029);stroke-width:0.1856641px;stroke-linecap:butt;stroke-linejoin:miter;stroke-opacity:1" />
      <path
         inkscape:connector-curvature="0"
         sodipodi:nodetypes="ccccccc"
         id="path1381"
         d="m 18.643291,27.5 c 3.285573,-4.511714 6.571148,-9.438595 9.856721,-13.950311 -1.739422,0.03923 -3.951747,-0.03923 -5.69117,0 C 20.837499,-0.65241752 2.3092369,-4.3803993 0.50000024,7.5318719 9.0715742,-3.544751 14.508179,8.6456449 14.392217,13.549689 c -1.623458,0.03923 -4.098148,-0.03923 -5.721608,0 3.324228,4.550952 6.648455,9.399361 9.972682,13.950311 z"
         style="fill:url(#linearGradient4021);fill-opacity:1;fill-rule:evenodd;stroke:#4ea01c;stroke-width:0.18566406;stroke-linecap:round;stroke-linejoin:round;stroke-miterlimit:4;stroke-dasharray:none;stroke-opacity:1" />
      <path
         inkscape:connector-curvature="0"
         sodipodi:nodetypes="ccccccc"
         id="path4839"
         d="M 18.70079,25.7766 26.50001,14.529927 H 21.789838 C 21.789838,3.8721797 8.3928894,-2.4453482 3.0531914,3.8008727 10.971293,-2.0990259 15.46991,8.5905007 15.46991,14.529927 h -4.850416 z"
         style="fill:none;fill-opacity:1;fill-rule:evenodd;stroke:url(#linearGradient4018);stroke-width:0.18566409;stroke-linecap:round;stroke-linejoin:round;stroke-miterlimit:4;stroke-dasharray:none;stroke-opacity:1" />
    </g>
  </g>
  <metadata
     id="metadata1589">
    <rdf:RDF>
      <cc:Work>
        <dc:format>image/svg+xml</dc:format>
        <dc:type
           rdf:resource="http://purl.org/dc/dcmitype/StillImage" />
        <cc:license
           rdf:resource="http://creativecommons.org/publicdomain/zero/1.0/" />
        <dc:publisher>
          <cc:Agent
             rdf:about="http://openclipart.org/">
            <dc:title>Openclipart</dc:title>
          </cc:Agent>
        </dc:publisher>
        <dc:title>database server</dc:title>
        <dc:date>2011-10-15T13:20:35</dc:date>
        <dc:description>Database Server</dc:description>
        <dc:source>https://openclipart.org/detail/163711/database-server-by-lyte</dc:source>
        <dc:creator>
          <cc:Agent>
            <dc:title>lyte</dc:title>
          </cc:Agent>
        </dc:creator>
        <dc:subject>
          <rdf:Bag>
            <rdf:li>computer</rdf:li>
            <rdf:li>database</rdf:li>
            <rdf:li>db</rdf:li>
            <rdf:li>network</rdf:li>
            <rdf:li>server</rdf:li>
          </rdf:Bag>
        </dc:subject>
      </cc:Work>
      <cc:License
         rdf:about="http://creativecommons.org/publicdomain/zero/1.0/">
        <cc:permits
           rdf:resource="http://creativecommons.org/ns#Reproduction" />
        <cc:permits
           rdf:resource="http://creativecommons.org/ns#Distribution" />
        <cc:permits
           rdf:resource="http://creativecommons.org/ns#DerivativeWorks" />
      </cc:License>
    </rdf:RDF>
  </metadata>
</svg>
